<?xml version="1.0" encoding="utf-8"?>
<!-- Generator: Adobe Illustrator 19.1.1, SVG Export Plug-In . SVG Version: 6.00 Build 0)  -->
<svg version="1.1" id="Calque_1" xmlns="http://www.w3.org/2000/svg" xmlns:xlink="http://www.w3.org/1999/xlink" x="0px" y="0px"
	 viewBox="0 0 531 182.2" style="enable-background:new 0 0 531 182.2;" xml:space="preserve">
<style type="text/css">
	.st0{fill:#F0836E;}
	.st1{fill:url(#SVGID_1_);}
	.st2{fill:url(#SVGID_2_);}
	.st3{fill:#FFFFFF;}
	.st4{fill:url(#SVGID_3_);}
	.st5{fill:url(#SVGID_4_);}
	.st6{fill:url(#SVGID_5_);}
	.st7{fill:url(#SVGID_6_);}
	.st8{fill:url(#SVGID_7_);}
	.st9{fill:url(#SVGID_8_);}
	.st10{fill:url(#SVGID_9_);}
	.st11{fill:url(#SVGID_10_);}
</style>
<g>
	<linearGradient id="SVGID_1_" gradientUnits="userSpaceOnUse" x1="83.7626" y1="39.6154" x2="83.7626" y2="117.9474">
		<stop  offset="0" style="stop-color:#F0836E"/>
		<stop  offset="1" style="stop-color:#E8412C"/>
	</linearGradient>
	<path class="st1" d="M107.5,39.6H60c-8.5,0-15.4,6.9-15.4,15.4v47.5c0,8.5,6.9,15.4,15.4,15.4h47.5c8.5,0,15.4-6.9,15.4-15.4V55
		C122.9,46.5,116,39.6,107.5,39.6z M107.5,102.5L107.5,102.5c-3.3,3.3-8.7,3.3-12,0L83.8,90.8l-11.7,11.7c-3.3,3.3-8.7,3.3-12,0h0
		c-3.3-3.3-3.3-8.7,0-12l11.7-11.7L60,67.1c-3.3-3.3-3.3-8.7,0-12h0c3.3-3.3,8.7-3.3,12,0l11.7,11.7L95.4,55c3.3-3.3,8.7-3.3,12,0h0
		c3.3,3.3,3.3,8.7,0,12L95.8,78.8l11.7,11.7C110.8,93.8,110.8,99.2,107.5,102.5z"/>
	<g>
		<path class="st3" d="M134.4,137.5l5.4-12.3c1.6,1,3.8,1.8,6.7,2.6c2.8,0.8,5.3,1.2,7.5,1.2c2.4,0,4.3-0.5,5.7-1.5
			c1.4-1,2.2-2.1,2.2-3.3c0-0.8-0.5-1.5-1.6-2.3c-1-0.7-2.7-1.8-5.1-3.2l-2.8-1.6c-4.1-2.4-7.2-4.4-9.5-6c-2.3-1.6-4.3-3.6-6.1-6.2
			c-1.8-2.5-2.7-5.4-2.7-8.5c0-3.4,0.9-6.4,2.8-9c1.9-2.7,4.5-4.7,7.9-6.2c3.4-1.5,7.4-2.2,11.9-2.2c3.1,0,6.3,0.4,9.6,1.3
			c3.3,0.9,6.1,2.1,8.4,3.7l-4.8,11c-3.2-1.1-5.6-1.8-7.3-2.2c-1.7-0.4-3.6-0.5-5.6-0.5c-1.8,0-3.2,0.4-4.4,1.3
			c-1.1,0.8-1.7,1.9-1.7,3.1c0,0.9,0.5,1.7,1.4,2.4c0.9,0.7,2.5,1.6,4.6,2.7l3.2,1.8c3.8,2.2,6.9,4.1,9.4,6c2.5,1.8,4.7,4,6.4,6.5
			c1.8,2.5,2.6,5.3,2.6,8.4c0,3.5-1,6.6-3,9.2c-2,2.7-4.8,4.8-8.5,6.4c-3.7,1.6-8,2.3-12.9,2.3c-3.2,0-6.7-0.5-10.6-1.4
			C139.9,140.1,136.8,138.9,134.4,137.5z"/>
		<path class="st3" d="M214.8,79c6.5,0,12.1,1.4,16.8,4.1c4.8,2.8,8.4,6.5,11,11.3c2.5,4.8,3.8,10.1,3.8,16c0,6.2-1.3,11.8-4,16.7
			c-2.7,4.9-6.4,8.7-11.2,11.4c-4.8,2.7-10.3,4.1-16.4,4.1c-6.3,0-11.9-1.4-16.7-4.2c-4.8-2.8-8.4-6.6-11-11.4
			c-2.6-4.8-3.9-10.1-3.9-16c0-6.2,1.3-11.7,4-16.6c2.7-4.9,6.4-8.7,11.2-11.4C203.3,80.4,208.7,79,214.8,79z M200.1,111
			c0,5.3,1.3,9.6,3.9,12.9c2.6,3.4,6.2,5,10.7,5c4.4,0,7.9-1.6,10.7-4.8c2.8-3.2,4.2-7.8,4.2-13.7c0-5.2-1.3-9.5-4-12.8
			c-2.7-3.3-6.2-5-10.6-5c-2.8,0-5.3,0.8-7.5,2.3c-2.2,1.5-4,3.7-5.4,6.5C200.7,104.2,200.1,107.4,200.1,111z"/>
		<path class="st3" d="M252,137.5l5.4-12.3c1.6,1,3.8,1.8,6.7,2.6c2.8,0.8,5.3,1.2,7.5,1.2c2.4,0,4.3-0.5,5.7-1.5
			c1.4-1,2.2-2.1,2.2-3.3c0-0.8-0.5-1.5-1.6-2.3c-1-0.7-2.7-1.8-5.1-3.2l-2.8-1.6c-4.1-2.4-7.2-4.4-9.5-6c-2.3-1.6-4.3-3.6-6.1-6.2
			c-1.8-2.5-2.7-5.4-2.7-8.5c0-3.4,0.9-6.4,2.8-9c1.9-2.7,4.5-4.7,7.9-6.2c3.4-1.5,7.4-2.2,11.9-2.2c3.1,0,6.3,0.4,9.6,1.3
			c3.3,0.9,6.1,2.1,8.4,3.7l-4.8,11c-3.2-1.1-5.6-1.8-7.3-2.2c-1.7-0.4-3.6-0.5-5.6-0.5c-1.8,0-3.2,0.4-4.4,1.3
			c-1.1,0.8-1.7,1.9-1.7,3.1c0,0.9,0.5,1.7,1.4,2.4c0.9,0.7,2.5,1.6,4.6,2.7l3.2,1.8c3.8,2.2,6.9,4.1,9.4,6c2.5,1.8,4.7,4,6.4,6.5
			c1.8,2.5,2.6,5.3,2.6,8.4c0,3.5-1,6.6-3,9.2c-2,2.7-4.8,4.8-8.5,6.4c-3.7,1.6-8,2.3-12.9,2.3c-3.2,0-6.7-0.5-10.6-1.4
			C257.5,140.1,254.4,138.9,252,137.5z"/>
		<path class="st3" d="M343.1,141.3v-23.9h-21.4v23.9h-16.3V80.3l16.3-0.5v24.9h21.4V80.3h16.3v61.1H343.1z"/>
		<path class="st3" d="M373.8,141.3V80.3h16.3v61.1H373.8z"/>
		<path class="st3" d="M441.2,141.3l-15.6-22.8l-4.8,4.5v18.3h-16.3V80.3h16.3v21.2l24.5-22.5l12.7,9.2l-20.7,19.4l24.7,33.9H441.2z
			"/>
		<path class="st3" d="M470.1,141.3V80.3h16.3v61.1H470.1z"/>
	</g>
</g>
</svg>
